<?xml version="1.0" encoding="UTF-8" standalone="no"?>
<!DOCTYPE svg PUBLIC "-//W3C//DTD SVG 1.1//EN"
 "http://www.w3.org/Graphics/SVG/1.1/DTD/svg11.dtd">
<!-- Generated by graphviz version 2.47.0 (20210316.0004)
 -->
<!-- Title: dbml Pages: 1 -->
<svg width="1696pt" height="644pt"
 viewBox="0.00 0.00 1696.45 644.07" xmlns="http://www.w3.org/2000/svg" xmlns:xlink="http://www.w3.org/1999/xlink">
<g id="graph0" class="graph" transform="scale(1 1) rotate(0) translate(4 640.07)">
<title>dbml</title>
<!-- Category -->
<g id="Category" class="node">
<title>Category</title>
<ellipse fill="none" stroke="black" stroke-width="0" cx="847.05" cy="-130.11" rx="210.02" ry="130.22"/>
<polygon fill="#1d71b8" stroke="transparent" points="701.05,-160.11 701.05,-220.11 994.05,-220.11 994.05,-160.11 701.05,-160.11"/>
<polygon fill="none" stroke="#29235c" points="701.05,-160.11 701.05,-220.11 994.05,-220.11 994.05,-160.11 701.05,-160.11"/>
<text text-anchor="start" x="720.4" y="-181.31" font-family="Helvetica,sans-Serif" font-weight="bold" font-size="32.00" fill="#ffffff"> &#160;&#160;&#160;&#160;&#160;&#160;Category &#160;&#160;&#160;&#160;&#160;&#160;</text>
<polygon fill="#e7e2dd" stroke="transparent" points="701.05,-100.11 701.05,-160.11 994.05,-160.11 994.05,-100.11 701.05,-100.11"/>
<polygon fill="none" stroke="#29235c" points="701.05,-100.11 701.05,-160.11 994.05,-160.11 994.05,-100.11 701.05,-100.11"/>
<text text-anchor="start" x="712.05" y="-121.31" font-family="Helvetica,sans-Serif" font-weight="bold" font-size="32.00" fill="#29235c">id</text>
<text text-anchor="start" x="736.94" y="-121.31" font-family="Helvetica,sans-Serif" font-size="32.00" fill="#29235c"> &#160;&#160;&#160;</text>
<text text-anchor="start" x="840.83" y="-121.31" font-family="Helvetica,sans-Serif" font-style="italic" font-size="32.00" fill="#29235c">INTEGER</text>
<polygon fill="#e7e2dd" stroke="transparent" points="701.05,-40.11 701.05,-100.11 994.05,-100.11 994.05,-40.11 701.05,-40.11"/>
<polygon fill="none" stroke="#29235c" points="701.05,-40.11 701.05,-100.11 994.05,-100.11 994.05,-40.11 701.05,-40.11"/>
<text text-anchor="start" x="711.76" y="-60.31" font-family="Helvetica,sans-Serif" font-size="32.00" fill="#29235c">name &#160;&#160;&#160;</text>
<text text-anchor="start" x="826.84" y="-61.31" font-family="Helvetica,sans-Serif" font-style="italic" font-size="32.00" fill="#29235c">VARCHAR</text>
<polygon fill="none" stroke="#29235c" stroke-width="2" points="699.55,-39.11 699.55,-221.11 994.55,-221.11 994.55,-39.11 699.55,-39.11"/>
</g>
<!-- Philosopher -->
<g id="Philosopher" class="node">
<title>Philosopher</title>
<ellipse fill="none" stroke="black" stroke-width="0" cx="1431.06" cy="-421.11" rx="257.27" ry="214.92"/>
<polygon fill="#1d71b8" stroke="transparent" points="1251.06,-511.11 1251.06,-571.11 1611.06,-571.11 1611.06,-511.11 1251.06,-511.11"/>
<polygon fill="none" stroke="#29235c" points="1251.06,-511.11 1251.06,-571.11 1611.06,-571.11 1611.06,-511.11 1251.06,-511.11"/>
<text text-anchor="start" x="1284.35" y="-532.31" font-family="Helvetica,sans-Serif" font-weight="bold" font-size="32.00" fill="#ffffff"> &#160;&#160;&#160;&#160;&#160;&#160;Philosopher &#160;&#160;&#160;&#160;&#160;&#160;</text>
<polygon fill="#e7e2dd" stroke="transparent" points="1251.06,-451.11 1251.06,-511.11 1611.06,-511.11 1611.06,-451.11 1251.06,-451.11"/>
<polygon fill="none" stroke="#29235c" points="1251.06,-451.11 1251.06,-511.11 1611.06,-511.11 1611.06,-451.11 1251.06,-451.11"/>
<text text-anchor="start" x="1262.06" y="-472.31" font-family="Helvetica,sans-Serif" font-weight="bold" font-size="32.00" fill="#29235c">id</text>
<text text-anchor="start" x="1286.95" y="-472.31" font-family="Helvetica,sans-Serif" font-size="32.00" fill="#29235c"> &#160;&#160;&#160;</text>
<text text-anchor="start" x="1457.84" y="-472.31" font-family="Helvetica,sans-Serif" font-style="italic" font-size="32.00" fill="#29235c">INTEGER</text>
<polygon fill="#e7e2dd" stroke="transparent" points="1251.06,-391.11 1251.06,-451.11 1611.06,-451.11 1611.06,-391.11 1251.06,-391.11"/>
<polygon fill="none" stroke="#29235c" points="1251.06,-391.11 1251.06,-451.11 1611.06,-451.11 1611.06,-391.11 1251.06,-391.11"/>
<text text-anchor="start" x="1262.06" y="-411.31" font-family="Helvetica,sans-Serif" font-size="32.00" fill="#29235c">name &#160;&#160;&#160;</text>
<text text-anchor="start" x="1443.63" y="-412.31" font-family="Helvetica,sans-Serif" font-style="italic" font-size="32.00" fill="#29235c">VARCHAR</text>
<polygon fill="#e7e2dd" stroke="transparent" points="1251.06,-331.11 1251.06,-391.11 1611.06,-391.11 1611.06,-331.11 1251.06,-331.11"/>
<polygon fill="none" stroke="#29235c" points="1251.06,-331.11 1251.06,-391.11 1611.06,-391.11 1611.06,-331.11 1251.06,-331.11"/>
<text text-anchor="start" x="1261.64" y="-351.31" font-family="Helvetica,sans-Serif" font-size="32.00" fill="#29235c">birth_date &#160;&#160;&#160;</text>
<text text-anchor="start" x="1438.68" y="-352.31" font-family="Helvetica,sans-Serif" font-style="italic" font-size="32.00" fill="#29235c">DATETIME</text>
<polygon fill="#e7e2dd" stroke="transparent" points="1251.06,-271.11 1251.06,-331.11 1611.06,-331.11 1611.06,-271.11 1251.06,-271.11"/>
<polygon fill="none" stroke="#29235c" points="1251.06,-271.11 1251.06,-331.11 1611.06,-331.11 1611.06,-271.11 1251.06,-271.11"/>
<text text-anchor="start" x="1262.06" y="-291.31" font-family="Helvetica,sans-Serif" font-size="32.00" fill="#29235c">nationality &#160;&#160;&#160;</text>
<text text-anchor="start" x="1443.63" y="-292.31" font-family="Helvetica,sans-Serif" font-style="italic" font-size="32.00" fill="#29235c">VARCHAR</text>
<polygon fill="none" stroke="#29235c" stroke-width="2" points="1250.06,-270.11 1250.06,-572.11 1612.06,-572.11 1612.06,-270.11 1250.06,-270.11"/>
</g>
<!-- Quote -->
<g id="Quote" class="node">
<title>Quote</title>
<ellipse fill="none" stroke="black" stroke-width="0" cx="847.05" cy="-451.11" rx="290.74" ry="172.57"/>
<polygon fill="#1d71b8" stroke="transparent" points="644.05,-511.11 644.05,-571.11 1051.05,-571.11 1051.05,-511.11 644.05,-511.11"/>
<polygon fill="none" stroke="#29235c" points="644.05,-511.11 644.05,-571.11 1051.05,-571.11 1051.05,-511.11 644.05,-511.11"/>
<text text-anchor="start" x="741.73" y="-532.31" font-family="Helvetica,sans-Serif" font-weight="bold" font-size="32.00" fill="#ffffff"> &#160;&#160;&#160;&#160;&#160;&#160;Quote &#160;&#160;&#160;&#160;&#160;&#160;</text>
<polygon fill="#e7e2dd" stroke="transparent" points="644.05,-451.11 644.05,-511.11 1051.05,-511.11 1051.05,-451.11 644.05,-451.11"/>
<polygon fill="none" stroke="#29235c" points="644.05,-451.11 644.05,-511.11 1051.05,-511.11 1051.05,-451.11 644.05,-451.11"/>
<text text-anchor="start" x="655.05" y="-472.31" font-family="Helvetica,sans-Serif" font-weight="bold" font-size="32.00" fill="#29235c">id</text>
<text text-anchor="start" x="679.94" y="-472.31" font-family="Helvetica,sans-Serif" font-size="32.00" fill="#29235c"> &#160;&#160;&#160;</text>
<text text-anchor="start" x="897.83" y="-472.31" font-family="Helvetica,sans-Serif" font-style="italic" font-size="32.00" fill="#29235c">INTEGER</text>
<polygon fill="#e7e2dd" stroke="transparent" points="644.05,-391.11 644.05,-451.11 1051.05,-451.11 1051.05,-391.11 644.05,-391.11"/>
<polygon fill="none" stroke="#29235c" points="644.05,-391.11 644.05,-451.11 1051.05,-451.11 1051.05,-391.11 644.05,-391.11"/>
<text text-anchor="start" x="655.05" y="-411.31" font-family="Helvetica,sans-Serif" font-size="32.00" fill="#29235c">text &#160;&#160;&#160;</text>
<text text-anchor="start" x="958.27" y="-412.31" font-family="Helvetica,sans-Serif" font-style="italic" font-size="32.00" fill="#29235c">TEXT</text>
<polygon fill="#e7e2dd" stroke="transparent" points="644.05,-331.11 644.05,-391.11 1051.05,-391.11 1051.05,-331.11 644.05,-331.11"/>
<polygon fill="none" stroke="#29235c" points="644.05,-331.11 644.05,-391.11 1051.05,-391.11 1051.05,-331.11 644.05,-331.11"/>
<text text-anchor="start" x="654.74" y="-351.31" font-family="Helvetica,sans-Serif" font-size="32.00" fill="#29235c">philosopher_id &#160;&#160;&#160;</text>
<text text-anchor="start" x="897.94" y="-352.31" font-family="Helvetica,sans-Serif" font-style="italic" font-size="32.00" fill="#29235c">INTEGER</text>
<polygon fill="none" stroke="#29235c" stroke-width="2" points="642.55,-330.11 642.55,-572.11 1051.55,-572.11 1051.55,-330.11 642.55,-330.11"/>
</g>
<!-- Quote&#45;&gt;Philosopher -->
<!-- Quote&#45;&gt;Philosopher -->
<g id="edge2" class="edge">
<title>Quote:e&#45;&gt;Philosopher:w</title>
<path fill="none" stroke="#29235c" stroke-width="3" d="M1052.05,-361.11C1151.44,-361.11 1147.56,-473.04 1239.89,-480.7"/>
<polygon fill="#29235c" stroke="#29235c" stroke-width="3" points="1239.93,-484.2 1250.06,-481.11 1240.21,-477.21 1239.93,-484.2"/>
<text text-anchor="middle" x="1243.84" y="-490.71" font-family="Helvetica,sans-Serif" font-size="32.00" fill="#29235c">*</text>
<text text-anchor="middle" x="1043.16" y="-370.71" font-family="Helvetica,sans-Serif" font-size="32.00" fill="#29235c">1</text>
</g>
<!-- QuoteCategory -->
<g id="QuoteCategory" class="node">
<title>QuoteCategory</title>
<ellipse fill="none" stroke="black" stroke-width="0" cx="260.22" cy="-335.11" rx="260.43" ry="172.57"/>
<polygon fill="#1d71b8" stroke="transparent" points="78.22,-395.11 78.22,-455.11 442.22,-455.11 442.22,-395.11 78.22,-395.11"/>
<polygon fill="none" stroke="#29235c" points="78.22,-395.11 78.22,-455.11 442.22,-455.11 442.22,-395.11 78.22,-395.11"/>
<text text-anchor="start" x="89.49" y="-416.31" font-family="Helvetica,sans-Serif" font-weight="bold" font-size="32.00" fill="#ffffff"> &#160;&#160;&#160;&#160;&#160;&#160;QuoteCategory &#160;&#160;&#160;&#160;&#160;&#160;</text>
<polygon fill="#e7e2dd" stroke="transparent" points="78.22,-335.11 78.22,-395.11 442.22,-395.11 442.22,-335.11 78.22,-335.11"/>
<polygon fill="none" stroke="#29235c" points="78.22,-335.11 78.22,-395.11 442.22,-395.11 442.22,-335.11 78.22,-335.11"/>
<text text-anchor="start" x="89.22" y="-356.31" font-family="Helvetica,sans-Serif" font-weight="bold" font-size="32.00" fill="#29235c">id</text>
<text text-anchor="start" x="114.1" y="-356.31" font-family="Helvetica,sans-Serif" font-size="32.00" fill="#29235c"> &#160;&#160;&#160;</text>
<text text-anchor="start" x="289" y="-356.31" font-family="Helvetica,sans-Serif" font-style="italic" font-size="32.00" fill="#29235c">INTEGER</text>
<polygon fill="#e7e2dd" stroke="transparent" points="78.22,-275.11 78.22,-335.11 442.22,-335.11 442.22,-275.11 78.22,-275.11"/>
<polygon fill="none" stroke="#29235c" points="78.22,-275.11 78.22,-335.11 442.22,-335.11 442.22,-275.11 78.22,-275.11"/>
<text text-anchor="start" x="89.22" y="-295.31" font-family="Helvetica,sans-Serif" font-size="32.00" fill="#29235c">quote_id &#160;&#160;&#160;</text>
<text text-anchor="start" x="289" y="-296.31" font-family="Helvetica,sans-Serif" font-style="italic" font-size="32.00" fill="#29235c">INTEGER</text>
<polygon fill="#e7e2dd" stroke="transparent" points="78.22,-215.11 78.22,-275.11 442.22,-275.11 442.22,-215.11 78.22,-215.11"/>
<polygon fill="none" stroke="#29235c" points="78.22,-215.11 78.22,-275.11 442.22,-275.11 442.22,-215.11 78.22,-215.11"/>
<text text-anchor="start" x="88.74" y="-235.31" font-family="Helvetica,sans-Serif" font-size="32.00" fill="#29235c">category_id &#160;&#160;&#160;</text>
<text text-anchor="start" x="289.11" y="-236.31" font-family="Helvetica,sans-Serif" font-style="italic" font-size="32.00" fill="#29235c">INTEGER</text>
<polygon fill="none" stroke="#29235c" stroke-width="2" points="77.22,-214.11 77.22,-456.11 443.22,-456.11 443.22,-214.11 77.22,-214.11"/>
</g>
<!-- QuoteCategory&#45;&gt;Category -->
<!-- QuoteCategory&#45;&gt;Category -->
<g id="edge4" class="edge">
<title>QuoteCategory:e&#45;&gt;Category:w</title>
<path fill="none" stroke="#29235c" stroke-width="3" d="M443.22,-245.11C564.87,-245.11 574.53,-136.31 690.05,-130.36"/>
<polygon fill="#29235c" stroke="#29235c" stroke-width="3" points="690.14,-133.86 700.05,-130.11 689.97,-126.86 690.14,-133.86"/>
<text text-anchor="middle" x="693.83" y="-101.31" font-family="Helvetica,sans-Serif" font-size="32.00" fill="#29235c">*</text>
<text text-anchor="middle" x="434.32" y="-254.71" font-family="Helvetica,sans-Serif" font-size="32.00" fill="#29235c">1</text>
</g>
<!-- QuoteCategory&#45;&gt;Quote -->
<!-- QuoteCategory&#45;&gt;Quote -->
<g id="edge6" class="edge">
<title>QuoteCategory:e&#45;&gt;Quote:w</title>
<path fill="none" stroke="#29235c" stroke-width="3" d="M443.22,-305.11C558.1,-305.11 526.73,-470.95 633.04,-480.66"/>
<polygon fill="#29235c" stroke="#29235c" stroke-width="3" points="632.91,-484.16 643.05,-481.11 633.22,-477.17 632.91,-484.16"/>
<text text-anchor="middle" x="636.83" y="-490.71" font-family="Helvetica,sans-Serif" font-size="32.00" fill="#29235c">*</text>
<text text-anchor="middle" x="434.32" y="-314.71" font-family="Helvetica,sans-Serif" font-size="32.00" fill="#29235c">1</text>
</g>
</g>
</svg>
